<?xml version="1.0" standalone="no"?>
<!DOCTYPE svg PUBLIC "-//W3C//DTD SVG 20010904//EN"
 "http://www.w3.org/TR/2001/REC-SVG-20010904/DTD/svg10.dtd">
<svg version="1.0" xmlns="http://www.w3.org/2000/svg"
 width="398.000000pt" height="129.000000pt" viewBox="0 0 398.000000 129.000000"
 preserveAspectRatio="xMidYMid meet">
<metadata>
Created by potrace 1.16, written by Peter Selinger 2001-2019
</metadata>
<g transform="translate(0.000000,129.000000) scale(0.100000,-0.100000)"
fill="#000000" stroke="none">
<path d="M1196 970 c-101 -32 -137 -173 -64 -255 69 -80 206 -66 253 25 22 42
19 128 -5 167 -32 54 -119 83 -184 63z m115 -33 c40 -27 62 -90 52 -150 -20
-124 -175 -145 -219 -30 -50 131 62 251 167 180z"/>
<path d="M1690 945 c1 -25 2 -27 11 -12 7 12 23 17 54 17 l45 0 0 -130 c0
-112 -2 -130 -17 -139 -14 -8 -7 -10 32 -10 39 0 46 2 33 10 -16 9 -18 27 -18
139 l0 130 49 0 c39 0 51 -4 54 -17 3 -10 5 -5 6 12 l1 30 -125 0 -125 0 0
-30z"/>
<path d="M1474 954 c23 -23 23 -245 0 -268 -14 -15 -11 -16 33 -16 37 1 44 3
31 11 -16 9 -18 27 -18 139 l0 130 40 0 c29 0 42 -5 50 -19 27 -51 -4 -111
-57 -111 -24 -1 -26 -2 -10 -11 23 -13 70 -3 90 19 37 43 28 109 -19 131 -14
6 -54 11 -90 11 -59 0 -64 -1 -50 -16z"/>
<path d="M2167 833 c-12 -106 -20 -140 -33 -150 -15 -11 -12 -13 27 -13 28 0
39 3 31 9 -11 7 -12 28 -5 107 l9 99 55 -113 54 -114 50 115 c28 64 51 114 53
112 2 -2 7 -47 13 -101 7 -75 6 -100 -4 -106 -7 -4 10 -7 38 -7 28 1 42 3 33
6 -21 5 -24 15 -39 158 -6 61 -15 116 -19 124 -7 13 -31 -33 -90 -171 -14 -32
-27 -58 -30 -58 -3 0 -29 54 -59 120 -30 66 -57 120 -61 120 -4 0 -14 -62 -23
-137z"/>
<path d="M2604 829 c-41 -97 -65 -144 -79 -150 -14 -5 -6 -8 30 -8 34 -1 45 2
36 8 -13 8 -13 15 -1 51 l13 41 60 -3 c60 -3 60 -3 74 -42 11 -32 11 -41 1
-48 -8 -4 7 -8 36 -8 47 0 48 0 28 18 -11 9 -44 77 -73 149 -30 73 -57 133
-60 133 -4 0 -33 -64 -65 -141z"/>
<path d="M983 587 c-3 -5 -3 -10 -1 -13 11 -10 2003 -4 2003 6 0 13 -1994 19
-2002 7z"/>
<path d="M733 451 c-57 -27 -83 -71 -83 -142 0 -100 67 -164 163 -156 51 4 88
26 120 69 25 34 27 120 4 165 -38 71 -128 100 -204 64z m149 -40 c52 -58 49
-152 -7 -208 -86 -86 -212 5 -190 138 7 43 37 86 69 100 39 17 99 3 128 -30z"/>
<path d="M1119 460 c-95 -28 -139 -139 -91 -230 21 -40 90 -80 137 -80 17 0
51 10 75 23 42 21 45 25 48 67 2 24 8 50 14 57 8 10 2 13 -28 13 -30 0 -35 -3
-26 -12 7 -7 12 -32 12 -56 0 -40 -3 -44 -35 -58 -98 -41 -175 14 -175 126 0
62 20 105 60 125 54 28 105 16 148 -33 l23 -27 -7 30 c-8 35 -16 41 -64 55
-40 11 -55 11 -91 0z"/>
<path d="M1544 447 c-20 -18 -27 -32 -26 -58 0 -28 10 -43 55 -84 64 -59 73
-79 52 -112 -25 -37 -74 -29 -98 17 l-18 35 3 -40 c3 -37 6 -41 41 -50 47 -11
85 6 105 47 17 37 2 72 -54 121 -60 53 -70 72 -49 103 19 29 48 31 75 4 l20
-20 0 24 c0 16 -7 26 -22 30 -39 10 -56 7 -84 -17z"/>
<path d="M1704 461 c-2 -2 -4 -16 -4 -30 1 -23 2 -24 11 -8 7 12 23 17 54 17
l45 0 0 -134 c0 -120 -2 -135 -17 -139 -10 -3 7 -5 37 -5 30 0 47 2 38 5 -16
4 -18 19 -18 139 l0 134 43 0 c24 0 49 -6 56 -12 10 -11 12 -9 9 10 -3 23 -6
23 -126 25 -68 1 -126 0 -128 -2z"/>
<path d="M2247 456 c-70 -26 -97 -66 -97 -146 0 -98 55 -155 150 -154 69 0
106 22 120 73 15 55 11 61 -10 14 -50 -112 -204 -88 -225 35 -8 51 8 112 38
141 49 45 143 36 172 -18 l14 -26 1 31 c0 23 -6 34 -25 42 -43 20 -98 23 -138
8z"/>
<path d="M2643 460 c-12 -5 -26 -18 -32 -29 -22 -40 -12 -65 49 -126 62 -62
73 -90 44 -119 -17 -17 -51 -21 -72 -7 -7 4 -17 21 -21 37 l-8 29 -8 -28 c-11
-41 14 -62 71 -62 36 0 50 5 65 24 35 43 25 77 -41 145 -70 69 -77 103 -26
121 24 8 31 6 47 -14 l19 -23 0 25 c0 33 -40 46 -87 27z"/>
<path d="M2922 444 c-5 -11 -31 -71 -57 -134 -25 -63 -56 -123 -67 -132 -20
-18 -19 -18 23 -18 27 0 39 3 31 9 -11 6 -10 16 4 49 l16 42 57 0 58 0 13 -41
c12 -35 12 -42 -1 -50 -9 -6 4 -9 41 -8 38 0 49 3 35 8 -14 6 -37 49 -73 137
-65 160 -67 162 -80 138z"/>
<path d="M3133 449 c15 -9 17 -27 17 -139 0 -112 -2 -130 -17 -139 -14 -8 -7
-10 32 -10 39 0 46 2 33 10 -16 9 -18 27 -18 139 l0 130 40 0 c44 0 60 -18 60
-69 0 -33 -30 -61 -66 -61 -19 0 -17 -4 15 -42 84 -97 98 -108 133 -108 l33 1
-30 13 c-34 15 -123 126 -100 126 21 0 55 50 55 82 0 17 -10 39 -25 53 -21 22
-32 25 -102 25 -58 -1 -73 -3 -60 -11z"/>
</g>
</svg>
